<svg xmlns="http://www.w3.org/2000/svg" xmlns:xlink="http://www.w3.org/1999/xlink" width="749" height="571" viewBox="0 0 749 571">
  <defs>
    <clipPath id="clip-favicon">
      <rect width="749" height="571"/>
    </clipPath>
  </defs>
  <g id="favicon" clip-path="url(#clip-favicon)">
    <g id="mawchu-01" transform="translate(34.363 7)">
      <path id="Path_1" data-name="Path 1" d="M136.709,179.04a14.267,14.267,0,0,0-7.481-2.04,17.707,17.707,0,0,0-16.321,10.427,17.99,17.99,0,0,0,8.841,23.8,18.781,18.781,0,0,0,13.6.68,19.058,19.058,0,0,0,10.2-9.067A17.919,17.919,0,0,0,136.709,179.04Z" transform="translate(71.386 159.624)" fill="#bfc4b5"/>
      <path id="Path_2" data-name="Path 2" d="M634.048,361.47c-4.08-14.961-8.841-30.6-14.281-46.7a.791.791,0,0,0-.227-.453c-.453-1.587-1.133-3.174-1.587-4.76,0-.227-.227-.68-.227-.907-.453-1.587-1.133-2.947-1.587-4.534-.227-.453-.227-.68-.453-1.133-.453-1.587-1.133-2.947-1.587-4.534-.227-.453-.227-.68-.453-1.133-.453-1.587-1.133-2.947-1.587-4.534-.227-.453-.227-.68-.453-1.133-.453-1.587-1.133-2.947-1.587-4.534,0-.227-.227-.453-.227-.68-3.174-8.614-6.347-17-9.747-25.388-.227-.453-.227-.68-.453-1.133-.453-1.36-1.133-2.494-1.587-3.854-.227-.68-.453-1.133-.68-1.813a25.172,25.172,0,0,0-1.587-3.627,8.054,8.054,0,0,0-.907-2.04l-1.36-3.4c-.227-.68-.68-1.36-.907-2.04l-1.36-3.4a23.5,23.5,0,0,1-.907-2.267c-.453-1.133-.907-2.267-1.36-3.173a23.522,23.522,0,0,1-.907-2.267c-.453-1.133-.907-2.04-1.36-3.174a23.5,23.5,0,0,1-.907-2.267c-.453-1.133-.907-2.04-1.36-3.174-.453-.68-.68-1.587-1.133-2.267-.453-1.133-.907-2.04-1.36-3.174-.227-.68-.68-1.36-.907-2.04-.907-2.04-2.04-4.307-3.174-6.347a13.458,13.458,0,0,0-.907-1.813l-1.36-2.72a24.726,24.726,0,0,0-1.36-2.494c-.453-.907-.907-1.587-1.36-2.494a24.717,24.717,0,0,0-1.36-2.493c-.453-.907-.907-1.587-1.36-2.494a24.729,24.729,0,0,0-1.36-2.493c-.453-.907-.907-1.587-1.36-2.494a24.741,24.741,0,0,0-1.36-2.494c-.453-.68-.907-1.587-1.36-2.267-.453-.907-.907-1.587-1.36-2.494-.453-.68-.907-1.587-1.36-2.267a15.253,15.253,0,0,0-1.587-2.494c-.453-.68-.907-1.587-1.36-2.267a23.892,23.892,0,0,0-1.587-2.494l-1.36-2.04c-.453-.907-1.133-1.813-1.587-2.72a9.188,9.188,0,0,1-1.133-2.04,33.558,33.558,0,0,1-1.813-2.947c-.453-.453-.68-1.133-1.133-1.587a48.544,48.544,0,0,0-2.947-4.307,1.178,1.178,0,0,1-.453-.907c-.68-1.133-1.587-2.267-2.267-3.4a9.6,9.6,0,0,1-1.133-1.587c-.68-.907-1.133-1.813-1.813-2.72a6.887,6.887,0,0,1-1.133-1.587,19.822,19.822,0,0,0-1.813-2.267c-.453-.453-.907-1.133-1.36-1.587-.68-.68-1.133-1.587-1.813-2.267-.453-.453-.907-1.133-1.36-1.587-.68-.68-1.133-1.36-1.813-2.04-.453-.453-.907-1.133-1.36-1.587-.68-.68-1.133-1.36-1.813-2.04a9.857,9.857,0,0,1-1.36-1.587c-.68-.68-1.133-1.36-1.813-2.04l-1.36-1.36c-.68-.68-1.133-1.36-1.813-2.04a6.009,6.009,0,0,1-1.133-1.36l-2.04-2.04-1.133-1.133c-.907-.68-1.587-1.587-2.494-2.267l-.68-.68c-1.133-.907-2.04-1.813-3.174-2.72a3.13,3.13,0,0,0-.907-.68c-.68-.68-1.587-1.36-2.267-2.04-.453-.227-.68-.68-1.133-.907-.68-.453-1.36-1.133-2.04-1.587-.453-.227-.907-.68-1.36-.907a12.573,12.573,0,0,1-1.813-1.36c-.453-.227-.907-.68-1.36-.907a7.953,7.953,0,0,0-1.813-1.133,4.742,4.742,0,0,1-1.36-.907c-.68-.453-1.133-.68-1.814-1.133l-1.36-.68c-.68-.227-1.133-.68-1.813-.907l-1.36-.68c-.68-.227-1.133-.68-1.813-.907l-1.36-.68-2.04-.68c-.453-.227-.907-.227-1.36-.453-.68-.227-1.36-.453-2.267-.68-.453,0-.68-.227-1.133-.227-1.133-.227-2.267-.68-3.174-.907-28.109-6.12-59.164,13.148-92.713,58.257l-1.133,1.36c-18.135,21.081-36.043,24.028-47.83,23.122-21.762-2.267-34.229-18.815-38.309-25.388-31.962-43.523-62.791-62.791-90.9-56.671a16.7,16.7,0,0,0-3.174.907c-.453,0-.68.227-1.133.227l-2.04.68c-.453.227-.907.227-1.36.453l-2.04.68-1.36.68a6.787,6.787,0,0,0-1.813.907l-1.36.68c-.68.227-1.133.68-1.813.907l-1.36.68c-.68.453-1.133.68-1.813,1.133a4.741,4.741,0,0,0-1.36.907c-.68.453-1.133.68-1.813,1.133-.453.227-.907.68-1.36.907a12.573,12.573,0,0,0-1.813,1.36c-.453.227-.907.68-1.36.907a12.458,12.458,0,0,0-2.04,1.587c-.453.227-.68.68-1.133.907-.68.68-1.587,1.36-2.267,2.04l-.68.68c-1.133.907-2.04,1.813-3.174,2.72l-.68.68a21.373,21.373,0,0,0-2.267,2.267l-1.133,1.133-2.04,2.04a6.01,6.01,0,0,0-1.133,1.36c-.68.68-1.133,1.36-1.813,2.04l-1.36,1.36c-.68.68-1.133,1.36-1.813,2.04a9.858,9.858,0,0,0-1.36,1.587c-.68.68-1.133,1.36-1.813,2.04-.453.453-.907,1.133-1.36,1.587-.68.68-1.133,1.36-1.813,2.04-.453.453-.907,1.133-1.36,1.587-.68.68-1.133,1.587-1.813,2.267-.453.453-.907,1.133-1.36,1.587-.68.68-1.133,1.587-1.813,2.267a6.889,6.889,0,0,0-1.133,1.587,18.912,18.912,0,0,0-1.813,2.72c-.453.453-.68.907-1.133,1.36a22.457,22.457,0,0,0-2.493,3.854c-.227.227-.227.453-.453.68l-2.72,4.08c-.453.453-.68,1.133-1.133,1.587a33.561,33.561,0,0,0-1.813,2.947,9.19,9.19,0,0,0-1.133,2.04c-.453.907-1.133,1.813-1.587,2.72l-1.36,2.04a23.9,23.9,0,0,1-1.587,2.494,19.935,19.935,0,0,0-1.36,2.267,15.248,15.248,0,0,1-1.587,2.494c-.453.68-.907,1.587-1.36,2.267-.453.907-.907,1.587-1.36,2.494a24.727,24.727,0,0,0-1.36,2.494c-.453.907-.907,1.587-1.36,2.494s-.907,1.587-1.36,2.494a24.727,24.727,0,0,1-1.36,2.493c-.453.907-.907,1.587-1.36,2.494l-1.36,2.72c-.453.907-.907,1.587-1.36,2.493a24.728,24.728,0,0,1-1.36,2.494l-1.36,2.72a.792.792,0,0,1-.227.453c-1.133,2.493-2.493,4.987-3.627,7.48a21.068,21.068,0,0,0-1.133,2.267c-.453,1.133-.907,2.04-1.36,3.174-.453.68-.68,1.587-1.133,2.267-.453,1.133-.907,2.04-1.36,3.174-.227.68-.68,1.587-.907,2.267-.453,1.133-.907,2.04-1.36,3.174-.227.68-.68,1.587-.907,2.267-.453,1.133-.907,2.04-1.36,3.174a23.51,23.51,0,0,0-.907,2.267l-1.36,3.4c-.227.68-.68,1.36-.907,2.04a22.876,22.876,0,0,1-1.587,3.4,4.556,4.556,0,0,1-.907,1.813,25.187,25.187,0,0,1-1.587,3.627c-.227.453-.453,1.133-.68,1.587-.453,1.36-1.133,2.494-1.587,3.854-.227.453-.227.68-.453,1.133-2.72,6.8-5.44,13.828-7.934,20.628h0c-.68,1.587-1.133,3.174-1.813,4.76,0,.227-.227.453-.227.68-.453,1.587-1.133,2.947-1.587,4.534-.227.453-.227.68-.453,1.133-.453,1.587-1.133,2.947-1.587,4.534-.227.453-.227.68-.453,1.133-.453,1.587-1.133,2.947-1.587,4.534-.227.453-.227.68-.453,1.133-.453,1.587-1.133,2.947-1.587,4.534,0,.227-.227.68-.227.907-.453,1.587-1.133,3.174-1.587,4.76,0,.227,0,.227-.227.453-5.214,16.094-9.974,31.736-14.281,46.7h0c-.453,1.587-.907,3.4-1.36,4.987,53.724,92.26,164.118,134.423,291.287,134.423S580.55,458.943,634.274,366.91c.68-2.04.227-3.627-.226-5.44ZM265.235,326.787H264.1c-9.294-.227-20.175-2.04-29.242-11.787a39.472,39.472,0,0,1-20.4,17.908,34.16,34.16,0,0,1-13.374,2.494,35.355,35.355,0,0,1-15.868-3.627c-19.268-9.067-27.655-32.642-18.815-52.59s31.736-28.562,51-19.495c.227,0,.453.227.68.453-1.133-7.481-3.854-14.961-9.294-17.681-10.654-5.44-31.509,4.76-39.669,10.654a12.648,12.648,0,0,1-17.908-3.627,13.336,13.336,0,0,1,3.627-18.361c3.854-2.72,38.763-25.615,65.285-12.241,14.508,7.027,22.668,22.668,24.482,46.017,2.947,35.816,12.694,35.816,19.721,35.816h.907c7.027,0,12.921,6.12,12.921,13.6A12.828,12.828,0,0,1,265.235,326.787Zm131.7,49.19c-13.374,4.08-27.882-.227-42.843-12.468a21.822,21.822,0,0,0-4.534-2.04L348.2,362.6c-12.468,9.747-23.575,14.734-34.229,14.734a37.761,37.761,0,0,1-9.974-1.36c-20.175-6.12-27.882-28.562-28.562-31.282l23.348-7.934c.907,3.174,5.667,12.694,12.468,14.734,6.12,2.04,14.281-2.947,20.175-7.934,5.44-6.347,18.135-12.921,35.589-1.814l1.36.907c5.894,4.987,14.508,10.654,21.308,8.614,6.8-2.267,11.334-12.241,12.468-14.734l23.348,7.934C424.593,347.415,416.886,369.857,396.938,375.977Zm126.035-46.7a18.6,18.6,0,0,1-4.987.453c-10.2,0-19.041-4.987-25.388-9.747a52.165,52.165,0,0,1-28.335,9.521h-3.4c-14.734,0-26.975-4.76-36.043-14.054-15.414-15.641-14.961-38.309-14.961-41.03.227-7.254,5.894-13.148,13.374-12.694A13.2,13.2,0,0,1,435.7,275.557c0,.453,0,13.6,7.707,21.308q6.46,6.46,19.721,6.12c8.614-.453,14.508-3.854,18.588-8.387a13.151,13.151,0,0,1,2.267-2.72,42.9,42.9,0,0,0,7.254-18.361,12.91,12.91,0,1,1,25.615,3.174,68.08,68.08,0,0,1-7.481,23.122c2.947,2.04,6.347,3.627,9.294,3.173A13,13,0,0,1,533.4,314.093,13.25,13.25,0,0,1,522.973,329.281Z" transform="translate(-4.097 58.8)" fill="#bfc4b5"/>
      <path id="Path_3" data-name="Path 3" d="M707.347,277.851C691.933,186.724,627.1,109.426,536.882,66.129,487.919,42.1,431.475,28.5,371.4,28.5A385.132,385.132,0,0,0,251.489,47.541C122.506,88.8,30.7,194.885,30.7,319.334a61.543,61.543,0,0,0,.227,6.574v1.813a249.681,249.681,0,0,0,9.294,59.617c86.593-232.8,184.293-243.91,184.293-243.91.453-.227.907-.227,1.133-.453a39.483,39.483,0,0,1,4.987-1.133c46.7-9.974,92.94,14.054,137.143,71.632l1.813,2.493.227.227a40.813,40.813,0,0,0,3.627-3.4c44.2-56.9,89.993-80.7,136.69-70.725,1.587.453,3.4.68,4.987,1.133a3.222,3.222,0,0,1,1.36.453,39.066,39.066,0,0,1,4.76,1.587h0a40.868,40.868,0,0,1,4.76,1.813c.453.227.907.227,1.133.453l4.76,2.04h0c1.587.68,3.174,1.587,4.76,2.267.453.227.68.453,1.133.68,1.587.907,2.947,1.587,4.534,2.494h.227a31.135,31.135,0,0,1,4.534,2.947c.453.227.68.453,1.133.68,1.36.907,2.947,2.04,4.307,2.947h.227c1.587,1.133,2.947,2.267,4.534,3.4a3.98,3.98,0,0,1,1.133.907c1.36,1.133,2.72,2.267,4.307,3.4l.227.227c1.36,1.133,2.947,2.493,4.307,3.627l.227.227c36.5,30.829,86.139,93.393,132.383,220.109a250.354,250.354,0,0,0,11.107-73.9A279.743,279.743,0,0,0,707.347,277.851Z" transform="translate(-30.7 -28.5)" fill="#bfc4b5"/>
    </g>
  </g>
</svg>
