<svg xmlns="http://www.w3.org/2000/svg" xmlns:xlink="http://www.w3.org/1999/xlink" width="749" height="571" viewBox="0 0 749 571">
  <defs>
    <clipPath id="clip-favicon">
      <rect width="749" height="571"/>
    </clipPath>
  </defs>
  <g id="favicon" clip-path="url(#clip-favicon)">
    <g id="mawchu-01" transform="translate(33.148 3)">
      <path id="Path_1" data-name="Path 1" d="M136.8,179.047A14.318,14.318,0,0,0,129.292,177a17.77,17.77,0,0,0-16.379,10.465,18.055,18.055,0,0,0,8.872,23.887,18.848,18.848,0,0,0,13.65.682,19.126,19.126,0,0,0,10.237-9.1A17.983,17.983,0,0,0,136.8,179.047Z" transform="translate(72.038 160.826)" fill="#3f382f"/>
      <path id="Path_2" data-name="Path 2" d="M636.127,362.413c-4.095-15.014-8.872-30.711-14.332-46.863a.794.794,0,0,0-.227-.455c-.455-1.592-1.137-3.185-1.592-4.777,0-.228-.227-.682-.227-.91-.455-1.592-1.137-2.957-1.592-4.55-.228-.455-.228-.682-.455-1.137-.455-1.592-1.137-2.957-1.592-4.55-.228-.455-.228-.682-.455-1.137-.455-1.592-1.137-2.957-1.592-4.55-.228-.455-.228-.682-.455-1.137-.455-1.592-1.137-2.957-1.592-4.55,0-.228-.227-.455-.227-.682-3.185-8.645-6.37-17.062-9.782-25.479-.228-.455-.228-.682-.455-1.137-.455-1.365-1.137-2.5-1.592-3.867-.227-.682-.455-1.137-.682-1.82a25.264,25.264,0,0,0-1.592-3.64,8.085,8.085,0,0,0-.91-2.047l-1.365-3.412c-.227-.682-.682-1.365-.91-2.047l-1.365-3.412a23.6,23.6,0,0,1-.91-2.275c-.455-1.137-.91-2.275-1.365-3.185a23.606,23.606,0,0,1-.91-2.275c-.455-1.137-.91-2.047-1.365-3.185a23.588,23.588,0,0,1-.91-2.275c-.455-1.137-.91-2.047-1.365-3.185-.455-.682-.682-1.592-1.137-2.275-.455-1.137-.91-2.047-1.365-3.185-.228-.682-.682-1.365-.91-2.047-.91-2.047-2.047-4.322-3.185-6.37a13.506,13.506,0,0,0-.91-1.82l-1.365-2.73a24.815,24.815,0,0,0-1.365-2.5c-.455-.91-.91-1.592-1.365-2.5a24.805,24.805,0,0,0-1.365-2.5c-.455-.91-.91-1.592-1.365-2.5a24.818,24.818,0,0,0-1.365-2.5c-.455-.91-.91-1.592-1.365-2.5a24.819,24.819,0,0,0-1.365-2.5c-.455-.682-.91-1.592-1.365-2.275-.455-.91-.91-1.592-1.365-2.5-.455-.682-.91-1.592-1.365-2.275a15.308,15.308,0,0,0-1.592-2.5c-.455-.682-.91-1.592-1.365-2.275a23.978,23.978,0,0,0-1.592-2.5l-1.365-2.047c-.455-.91-1.137-1.82-1.592-2.73a9.222,9.222,0,0,1-1.137-2.047,33.678,33.678,0,0,1-1.82-2.957c-.455-.455-.682-1.137-1.138-1.592a48.72,48.72,0,0,0-2.957-4.322,1.182,1.182,0,0,1-.455-.91c-.682-1.137-1.593-2.275-2.275-3.412a9.63,9.63,0,0,1-1.137-1.592c-.682-.91-1.137-1.82-1.82-2.73a6.912,6.912,0,0,1-1.138-1.592,19.891,19.891,0,0,0-1.82-2.275c-.455-.455-.91-1.137-1.365-1.592-.682-.682-1.138-1.592-1.82-2.275-.455-.455-.91-1.137-1.365-1.592-.682-.682-1.138-1.365-1.82-2.047-.455-.455-.91-1.137-1.365-1.592-.682-.682-1.137-1.365-1.82-2.047a9.892,9.892,0,0,1-1.365-1.592c-.682-.682-1.138-1.365-1.82-2.047l-1.365-1.365c-.682-.682-1.137-1.365-1.82-2.047a6.03,6.03,0,0,1-1.137-1.365l-2.047-2.047-1.137-1.137c-.91-.682-1.592-1.592-2.5-2.275l-.682-.682c-1.137-.91-2.047-1.82-3.185-2.73a3.143,3.143,0,0,0-.91-.682c-.682-.682-1.592-1.365-2.275-2.047-.455-.227-.682-.682-1.137-.91-.682-.455-1.365-1.137-2.047-1.592-.455-.227-.91-.682-1.365-.91a12.617,12.617,0,0,1-1.82-1.365c-.455-.227-.91-.683-1.365-.91a7.981,7.981,0,0,0-1.82-1.137,4.759,4.759,0,0,1-1.365-.91c-.682-.455-1.138-.682-1.82-1.137l-1.365-.682c-.682-.227-1.137-.682-1.82-.91l-1.365-.682c-.682-.227-1.137-.682-1.82-.91l-1.365-.682-2.047-.682c-.455-.227-.91-.227-1.365-.455-.682-.228-1.365-.455-2.275-.682-.455,0-.682-.227-1.137-.227-1.137-.227-2.275-.682-3.185-.91-28.209-6.142-59.375,13.195-93.044,58.465l-1.137,1.365c-18.2,21.157-36.171,24.114-48,23.2-21.839-2.275-34.351-18.882-38.446-25.479C267.59,112.4,236.651,93.062,208.442,99.2a16.757,16.757,0,0,0-3.185.91c-.455,0-.682.228-1.137.228l-2.047.682c-.455.227-.91.227-1.365.455l-2.047.682-1.365.682a6.811,6.811,0,0,0-1.82.91l-1.365.682c-.682.227-1.137.682-1.82.91l-1.365.682c-.682.455-1.137.682-1.82,1.137a4.758,4.758,0,0,0-1.365.91c-.682.455-1.137.682-1.82,1.137-.455.227-.91.682-1.365.91a12.618,12.618,0,0,0-1.82,1.365c-.455.227-.91.682-1.365.91a12.5,12.5,0,0,0-2.047,1.592c-.455.227-.682.682-1.137.91-.682.682-1.592,1.365-2.275,2.047l-.682.683c-1.137.91-2.047,1.82-3.185,2.73l-.682.682a21.45,21.45,0,0,0-2.275,2.275l-1.137,1.137L165.9,126.5a6.031,6.031,0,0,0-1.137,1.365c-.682.682-1.137,1.365-1.82,2.047l-1.365,1.365c-.682.682-1.137,1.365-1.82,2.047a9.892,9.892,0,0,0-1.365,1.592c-.682.682-1.137,1.365-1.82,2.047-.455.455-.91,1.137-1.365,1.592-.683.682-1.137,1.365-1.82,2.047-.455.455-.91,1.137-1.365,1.592-.682.682-1.137,1.592-1.82,2.275-.455.455-.91,1.137-1.365,1.592-.682.682-1.137,1.592-1.82,2.275a6.913,6.913,0,0,0-1.137,1.592,18.981,18.981,0,0,0-1.82,2.73c-.455.455-.682.91-1.137,1.365a22.537,22.537,0,0,0-2.5,3.867c-.228.227-.228.455-.455.682l-2.73,4.095c-.455.455-.682,1.137-1.137,1.592a33.681,33.681,0,0,0-1.82,2.957,9.223,9.223,0,0,0-1.137,2.047c-.455.91-1.137,1.82-1.592,2.73l-1.365,2.047a23.984,23.984,0,0,1-1.592,2.5,20,20,0,0,0-1.365,2.275,15.3,15.3,0,0,1-1.592,2.5c-.455.682-.91,1.592-1.365,2.275-.455.91-.91,1.592-1.365,2.5a24.816,24.816,0,0,0-1.365,2.5c-.455.91-.91,1.592-1.365,2.5s-.91,1.592-1.365,2.5a24.814,24.814,0,0,1-1.365,2.5c-.455.91-.91,1.592-1.365,2.5l-1.365,2.73c-.455.91-.91,1.592-1.365,2.5a24.815,24.815,0,0,1-1.365,2.5l-1.365,2.73a.794.794,0,0,1-.227.455c-1.137,2.5-2.5,5-3.64,7.507a21.141,21.141,0,0,0-1.137,2.275c-.455,1.137-.91,2.047-1.365,3.185-.455.682-.682,1.592-1.137,2.275-.455,1.137-.91,2.047-1.365,3.185-.227.682-.683,1.592-.91,2.275-.455,1.137-.91,2.047-1.365,3.185-.227.683-.682,1.592-.91,2.275-.455,1.137-.91,2.047-1.365,3.185a23.593,23.593,0,0,0-.91,2.275l-1.365,3.412c-.227.682-.682,1.365-.91,2.047a22.958,22.958,0,0,1-1.592,3.412,4.572,4.572,0,0,1-.91,1.82,25.277,25.277,0,0,1-1.592,3.64c-.227.455-.455,1.137-.682,1.592-.455,1.365-1.137,2.5-1.592,3.867-.227.455-.227.682-.455,1.137-2.73,6.825-5.46,13.877-7.962,20.7h0c-.682,1.592-1.137,3.185-1.82,4.777,0,.228-.227.455-.227.682-.455,1.592-1.137,2.957-1.592,4.55-.227.455-.227.682-.455,1.137-.455,1.592-1.137,2.957-1.592,4.55-.227.455-.227.682-.455,1.137-.455,1.592-1.137,2.957-1.592,4.55-.227.455-.227.682-.455,1.137-.455,1.592-1.137,2.957-1.592,4.55,0,.228-.228.682-.228.91-.455,1.592-1.137,3.185-1.592,4.777,0,.228,0,.228-.227.455-5.232,16.152-10.01,31.849-14.332,46.863h0c-.455,1.592-.91,3.412-1.365,5,53.916,92.589,164.7,134.9,292.327,134.9s238.412-42.541,292.327-134.9c.683-2.047.228-3.64-.227-5.46ZM266,327.606H264.86c-9.327-.227-20.247-2.047-29.346-11.83a39.612,39.612,0,0,1-20.474,17.972,34.282,34.282,0,0,1-13.422,2.5,35.481,35.481,0,0,1-15.924-3.64c-19.337-9.1-27.754-32.759-18.882-52.778S198.66,251.169,218,260.269c.227,0,.455.227.682.455-1.137-7.507-3.867-15.015-9.327-17.744-10.692-5.46-31.621,4.777-39.811,10.692a12.693,12.693,0,0,1-17.972-3.64,13.384,13.384,0,0,1,3.64-18.427c3.867-2.73,38.9-25.707,65.518-12.285,14.559,7.052,22.749,22.749,24.569,46.181,2.957,35.944,12.74,35.944,19.792,35.944H266c7.052,0,12.967,6.142,12.967,13.65A12.873,12.873,0,0,1,266,327.606ZM398.17,376.972c-13.422,4.095-27.982-.228-43-12.512a21.9,21.9,0,0,0-4.55-2.047l-1.365,1.137c-12.512,9.782-23.659,14.787-34.351,14.787a37.9,37.9,0,0,1-10.01-1.365c-20.247-6.142-27.982-28.664-28.664-31.394l23.432-7.962c.91,3.185,5.687,12.74,12.512,14.787,6.142,2.047,14.332-2.957,20.247-7.962,5.46-6.37,18.2-12.967,35.716-1.82l1.365.91c5.915,5,14.559,10.692,21.384,8.645,6.825-2.275,11.375-12.285,12.512-14.787l23.432,7.962C425.924,348.308,418.19,370.83,398.17,376.972Zm126.486-46.863a18.662,18.662,0,0,1-5,.455c-10.237,0-19.109-5-25.479-9.782a52.352,52.352,0,0,1-28.436,9.555h-3.412c-14.787,0-27.072-4.777-36.171-14.1-15.469-15.7-15.014-38.446-15.014-41.176.228-7.28,5.915-13.195,13.422-12.74a13.243,13.243,0,0,1,12.512,13.877c0,.455,0,13.65,7.735,21.384q6.483,6.483,19.792,6.142c8.645-.455,14.559-3.867,18.654-8.417a13.2,13.2,0,0,1,2.275-2.73,43.049,43.049,0,0,0,7.28-18.427,12.956,12.956,0,1,1,25.707,3.185,68.324,68.324,0,0,1-7.507,23.2c2.957,2.047,6.37,3.64,9.327,3.185a13.044,13.044,0,0,1,14.787,11.147A13.3,13.3,0,0,1,524.656,330.109Z" transform="translate(-3.927 59.357)" fill="#3f382f"/>
      <path id="Path_3" data-name="Path 3" d="M709.763,278.741c-15.469-91.452-80.532-169.026-171.074-212.477C489.551,42.15,432.906,28.5,372.62,28.5A386.507,386.507,0,0,0,252.277,47.609C122.834,89.013,30.7,195.479,30.7,320.372a61.762,61.762,0,0,0,.227,6.6v1.82a250.573,250.573,0,0,0,9.327,59.83c86.9-233.634,184.951-244.781,184.951-244.781.455-.227.91-.227,1.137-.455a39.624,39.624,0,0,1,5-1.137c46.863-10.01,93.272,14.1,137.633,71.887l1.82,2.5.228.227a40.961,40.961,0,0,0,3.64-3.412c44.361-57.1,90.314-80.987,137.178-70.977,1.592.455,3.412.682,5,1.137a3.233,3.233,0,0,1,1.365.455,39.2,39.2,0,0,1,4.777,1.592h0a41.018,41.018,0,0,1,4.777,1.82c.455.227.91.227,1.137.455l4.777,2.047h0c1.592.682,3.185,1.592,4.777,2.275.455.227.682.455,1.138.682,1.592.91,2.957,1.592,4.55,2.5h.227a31.245,31.245,0,0,1,4.55,2.957c.455.227.682.455,1.138.682,1.365.91,2.957,2.047,4.322,2.957h.227c1.592,1.137,2.957,2.275,4.55,3.412a3.994,3.994,0,0,1,1.137.91c1.365,1.137,2.73,2.275,4.322,3.412l.228.228c1.365,1.137,2.957,2.5,4.322,3.64l.227.227c36.626,30.939,86.447,93.727,132.855,220.895A251.247,251.247,0,0,0,713.4,320.6,280.744,280.744,0,0,0,709.763,278.741Z" transform="translate(-30.7 -28.5)" fill="#3f382f"/>
    </g>
  </g>
</svg>
