<svg xmlns="http://www.w3.org/2000/svg" xmlns:xlink="http://www.w3.org/1999/xlink" width="749" height="571" viewBox="0 0 749 571">
  <defs>
    <clipPath id="clip-favicon">
      <rect width="749" height="571"/>
    </clipPath>
  </defs>
  <g id="favicon" clip-path="url(#clip-favicon)">
    <g id="mawchu-01" transform="translate(-34)">
      <rect id="Rectangle_6" data-name="Rectangle 6" width="749" height="571" rx="45" transform="translate(34)" fill="#3f382f"/>
      <path id="Path_1" data-name="Path 1" d="M131.943,178.658A11.593,11.593,0,0,0,125.865,177a14.388,14.388,0,0,0-13.262,8.473,14.618,14.618,0,0,0,7.184,19.34,15.261,15.261,0,0,0,11.052.553A15.486,15.486,0,0,0,139.127,198,14.56,14.56,0,0,0,131.943,178.658Z" transform="translate(172.068 149.023)" fill="#fff"/>
      <path id="Path_2" data-name="Path 2" d="M524.893,311.975c-3.315-12.157-7.184-24.866-11.6-37.944a.643.643,0,0,0-.184-.368c-.368-1.289-.921-2.579-1.289-3.868,0-.184-.184-.553-.184-.737-.368-1.289-.921-2.395-1.289-3.684-.184-.368-.184-.553-.368-.921-.368-1.289-.921-2.395-1.289-3.684-.184-.368-.184-.553-.368-.921-.368-1.289-.921-2.395-1.289-3.684-.184-.368-.184-.553-.368-.921-.368-1.289-.921-2.395-1.289-3.684,0-.184-.184-.368-.184-.553-2.579-7-5.157-13.815-7.92-20.63-.184-.368-.184-.553-.368-.921-.368-1.105-.921-2.026-1.289-3.131-.184-.553-.368-.921-.553-1.474a20.457,20.457,0,0,0-1.289-2.947,6.544,6.544,0,0,0-.737-1.658l-1.105-2.763c-.184-.553-.553-1.105-.737-1.658l-1.105-2.763a19.109,19.109,0,0,1-.737-1.842c-.368-.921-.737-1.842-1.105-2.579a19.112,19.112,0,0,1-.737-1.842c-.368-.921-.737-1.658-1.105-2.579a19.112,19.112,0,0,1-.737-1.842c-.368-.921-.737-1.658-1.105-2.579-.368-.553-.553-1.289-.921-1.842-.368-.921-.737-1.658-1.105-2.579-.184-.553-.553-1.105-.737-1.658-.737-1.658-1.658-3.5-2.579-5.157a10.935,10.935,0,0,0-.737-1.474l-1.105-2.21a20.091,20.091,0,0,0-1.105-2.026c-.368-.737-.737-1.289-1.105-2.026a20.093,20.093,0,0,0-1.105-2.026c-.368-.737-.737-1.289-1.105-2.026a20.093,20.093,0,0,0-1.105-2.026c-.368-.737-.737-1.289-1.105-2.026a20.094,20.094,0,0,0-1.105-2.026c-.368-.553-.737-1.289-1.105-1.842-.368-.737-.737-1.289-1.105-2.026-.368-.553-.737-1.289-1.105-1.842a12.389,12.389,0,0,0-1.289-2.026c-.368-.553-.737-1.289-1.105-1.842a19.42,19.42,0,0,0-1.289-2.026l-1.105-1.658c-.368-.737-.921-1.474-1.289-2.21a7.466,7.466,0,0,1-.921-1.658,27.267,27.267,0,0,1-1.474-2.395c-.368-.368-.553-.921-.921-1.289a39.448,39.448,0,0,0-2.395-3.5.957.957,0,0,1-.368-.737c-.553-.921-1.289-1.842-1.842-2.763a7.8,7.8,0,0,1-.921-1.289c-.553-.737-.921-1.474-1.474-2.21a5.6,5.6,0,0,1-.921-1.289,16.107,16.107,0,0,0-1.474-1.842c-.368-.368-.737-.921-1.105-1.289-.553-.553-.921-1.289-1.474-1.842-.368-.368-.737-.921-1.105-1.289-.553-.553-.921-1.105-1.474-1.658-.368-.368-.737-.921-1.105-1.289-.553-.553-.921-1.105-1.474-1.658a8.012,8.012,0,0,1-1.105-1.289c-.553-.553-.921-1.105-1.474-1.658l-1.105-1.105c-.553-.553-.921-1.105-1.474-1.658a4.883,4.883,0,0,1-.921-1.105l-1.658-1.658-.921-.921c-.737-.553-1.289-1.289-2.026-1.842l-.553-.553c-.921-.737-1.658-1.474-2.579-2.21a2.543,2.543,0,0,0-.737-.553c-.553-.553-1.289-1.105-1.842-1.658-.368-.184-.553-.553-.921-.737-.553-.368-1.105-.921-1.658-1.289-.368-.184-.737-.553-1.105-.737a10.216,10.216,0,0,1-1.474-1.105c-.368-.184-.737-.553-1.105-.737a6.462,6.462,0,0,0-1.474-.921,3.853,3.853,0,0,1-1.105-.737c-.553-.368-.921-.553-1.474-.921l-1.105-.553c-.553-.184-.921-.553-1.474-.737l-1.105-.553c-.553-.184-.921-.553-1.474-.737l-1.105-.553-1.658-.553c-.368-.184-.737-.184-1.105-.368-.553-.184-1.105-.368-1.842-.553-.368,0-.553-.184-.921-.184-.921-.184-1.842-.553-2.579-.737-22.84-4.973-48.075,10.683-75.335,47.338l-.921,1.105c-14.736,17.13-29.287,19.525-38.865,18.788-17.683-1.842-27.813-15.288-31.129-20.63C226.5,109.546,201.449,93.89,178.609,98.863a13.567,13.567,0,0,0-2.579.737c-.368,0-.553.184-.921.184l-1.658.553c-.368.184-.737.184-1.105.368l-1.658.553-1.105.553a5.514,5.514,0,0,0-1.474.737L167,103.1c-.553.184-.921.553-1.474.737l-1.105.553c-.553.368-.921.553-1.474.921a3.853,3.853,0,0,0-1.105.737c-.553.368-.921.553-1.474.921-.368.184-.737.553-1.105.737a10.216,10.216,0,0,0-1.474,1.105c-.368.184-.737.553-1.105.737a10.123,10.123,0,0,0-1.658,1.289c-.368.184-.553.553-.921.737-.553.553-1.289,1.105-1.842,1.658l-.553.553c-.921.737-1.658,1.474-2.579,2.21l-.553.553a17.366,17.366,0,0,0-1.842,1.842l-.921.921-1.658,1.658a4.883,4.883,0,0,0-.921,1.105c-.553.553-.921,1.105-1.474,1.658l-1.105,1.105c-.553.553-.921,1.105-1.474,1.658a8.01,8.01,0,0,0-1.105,1.289c-.553.553-.921,1.105-1.474,1.658-.368.368-.737.921-1.105,1.289-.553.553-.921,1.105-1.474,1.658-.368.368-.737.921-1.105,1.289-.553.553-.921,1.289-1.474,1.842-.368.368-.737.921-1.105,1.289-.553.553-.921,1.289-1.474,1.842a5.6,5.6,0,0,0-.921,1.289,15.368,15.368,0,0,0-1.474,2.21c-.368.368-.553.737-.921,1.105a18.248,18.248,0,0,0-2.026,3.131c-.184.184-.184.368-.368.553l-2.21,3.315c-.368.368-.553.921-.921,1.289a27.267,27.267,0,0,0-1.474,2.395,7.467,7.467,0,0,0-.921,1.658c-.368.737-.921,1.474-1.289,2.21l-1.105,1.658a19.419,19.419,0,0,1-1.289,2.026,16.2,16.2,0,0,0-1.105,1.842,12.39,12.39,0,0,1-1.289,2.026c-.368.553-.737,1.289-1.105,1.842-.368.737-.737,1.289-1.105,2.026a20.1,20.1,0,0,0-1.105,2.026c-.368.737-.737,1.289-1.105,2.026s-.737,1.289-1.105,2.026a20.09,20.09,0,0,1-1.105,2.026c-.368.737-.737,1.289-1.105,2.026l-1.105,2.21c-.368.737-.737,1.289-1.105,2.026a20.094,20.094,0,0,1-1.105,2.026l-1.105,2.21a.643.643,0,0,1-.184.368c-.921,2.026-2.026,4.052-2.947,6.078a17.12,17.12,0,0,0-.921,1.842c-.368.921-.737,1.658-1.105,2.579-.368.553-.553,1.289-.921,1.842-.368.921-.737,1.658-1.105,2.579-.184.553-.553,1.289-.737,1.842-.368.921-.737,1.658-1.105,2.579-.184.553-.553,1.289-.737,1.842-.368.921-.737,1.658-1.105,2.579A19.107,19.107,0,0,0,87.8,213.8L86.7,216.563c-.184.553-.553,1.105-.737,1.658a18.588,18.588,0,0,1-1.289,2.763,3.7,3.7,0,0,1-.737,1.474,20.466,20.466,0,0,1-1.289,2.947c-.184.368-.368.921-.553,1.289-.368,1.105-.921,2.026-1.289,3.131-.184.368-.184.553-.368.921-2.21,5.526-4.421,11.236-6.447,16.762h0c-.553,1.289-.921,2.579-1.474,3.868,0,.184-.184.368-.184.553-.368,1.289-.921,2.395-1.289,3.684-.184.368-.184.553-.368.921-.368,1.289-.921,2.395-1.289,3.684-.184.368-.184.553-.368.921-.368,1.289-.921,2.395-1.289,3.684-.184.368-.184.553-.368.921-.368,1.289-.921,2.395-1.289,3.684,0,.184-.184.553-.184.737-.368,1.289-.921,2.579-1.289,3.868,0,.184,0,.184-.184.368-4.236,13.078-8.1,25.787-11.6,37.944h0c-.368,1.289-.737,2.763-1.105,4.052,43.654,74.967,133.356,109.227,236.689,109.227S481.423,391.178,525.077,316.4a7.2,7.2,0,0,0-.184-4.421ZM225.21,283.794h-.921c-7.552-.184-16.393-1.658-23.761-9.578a32.073,32.073,0,0,1-16.577,14.551,27.757,27.757,0,0,1-10.867,2.026,28.728,28.728,0,0,1-12.894-2.947c-15.656-7.368-22.472-26.524-15.288-42.733a30.892,30.892,0,0,1,41.444-15.841c.184,0,.368.184.553.368-.921-6.078-3.131-12.157-7.552-14.367-8.657-4.421-25.6,3.868-32.234,8.657a10.277,10.277,0,0,1-14.551-2.947,10.837,10.837,0,0,1,2.947-14.92c3.131-2.21,31.5-20.814,53.048-9.946,11.788,5.71,18.419,18.419,19.893,37.391,2.395,29.1,10.315,29.1,16.025,29.1h.737c5.71,0,10.5,4.973,10.5,11.052A10.423,10.423,0,0,1,225.21,283.794Zm107.016,39.97c-10.867,3.315-22.656-.184-34.813-10.131a17.731,17.731,0,0,0-3.684-1.658l-1.105.921c-10.131,7.92-19.156,11.973-27.813,11.973a30.683,30.683,0,0,1-8.1-1.105c-16.393-4.973-22.656-23.208-23.208-25.419l18.972-6.447c.737,2.579,4.6,10.315,10.131,11.973,4.973,1.658,11.6-2.395,16.393-6.447,4.421-5.157,14.735-10.5,28.918-1.474l1.105.737c4.789,4.052,11.788,8.657,17.314,7,5.526-1.842,9.21-9.946,10.131-11.973l18.972,6.447C354.7,300.555,348.436,318.79,332.227,323.764ZM434.639,285.82a15.11,15.11,0,0,1-4.052.368c-8.289,0-15.472-4.052-20.63-7.92A42.388,42.388,0,0,1,386.932,286h-2.763c-11.973,0-21.919-3.868-29.287-11.42-12.525-12.709-12.157-31.129-12.157-33.339.184-5.894,4.789-10.683,10.867-10.315a10.723,10.723,0,0,1,10.131,11.236c0,.368,0,11.052,6.263,17.314q5.249,5.249,16.025,4.973c7-.368,11.788-3.131,15.1-6.815a10.685,10.685,0,0,1,1.842-2.21,34.855,34.855,0,0,0,5.894-14.92,10.49,10.49,0,1,1,20.814,2.579,55.321,55.321,0,0,1-6.078,18.788c2.395,1.658,5.157,2.947,7.552,2.579a10.561,10.561,0,0,1,11.973,9.025A10.766,10.766,0,0,1,434.639,285.82Z" transform="translate(121.902 82.015)" fill="#fff"/>
      <path id="Path_3" data-name="Path 3" d="M580.518,231.113C567.993,157.067,515.313,94.257,442,59.076,402.218,39.552,356.354,28.5,307.543,28.5A312.943,312.943,0,0,0,210.1,43.972C105.3,77.5,30.7,163.7,30.7,264.82a50.007,50.007,0,0,0,.184,5.342v1.474a202.882,202.882,0,0,0,7.552,48.443C108.8,130.912,188.185,121.886,188.185,121.886c.368-.184.737-.184.921-.368a32.081,32.081,0,0,1,4.052-.921c37.944-8.1,75.519,11.42,111.437,58.205l1.474,2.026.184.184a33.163,33.163,0,0,0,2.947-2.763c35.918-46.233,73.125-65.573,111.069-57.468,1.289.368,2.763.553,4.052.921a2.618,2.618,0,0,1,1.105.368,31.744,31.744,0,0,1,3.868,1.289h0a33.208,33.208,0,0,1,3.868,1.474c.368.184.737.184.921.368l3.868,1.658h0c1.289.553,2.579,1.289,3.868,1.842.368.184.553.368.921.553,1.289.737,2.395,1.289,3.684,2.026h.184a25.3,25.3,0,0,1,3.684,2.395c.368.184.553.368.921.553,1.105.737,2.395,1.658,3.5,2.395h.184c1.289.921,2.394,1.842,3.684,2.763a3.234,3.234,0,0,1,.921.737c1.105.921,2.21,1.842,3.5,2.763l.184.184c1.105.921,2.395,2.026,3.5,2.947l.184.184c29.655,25.05,69.994,75.888,107.569,178.852A203.427,203.427,0,0,0,583.465,265,227.306,227.306,0,0,0,580.518,231.113Z" transform="translate(104.222 23.995)" fill="#fff"/>
    </g>
  </g>
</svg>
